<svg width="32" height="33" viewBox="0 0 32 33" fill="none" xmlns="http://www.w3.org/2000/svg">
<path d="M15.3333 13.5833C17.9107 13.5833 20 11.494 20 8.91667C20 6.33934 17.9107 4.25 15.3333 4.25C12.756 4.25 10.6667 6.33934 10.6667 8.91667C10.6667 11.494 12.756 13.5833 15.3333 13.5833Z" stroke="#437D8E" stroke-width="2.5" stroke-linecap="round" stroke-linejoin="round"/>
<path d="M19.9454 9.58333H20.5172C20.5731 9.58333 20.6011 9.58333 20.6288 9.58101C20.6535 9.57895 20.678 9.57551 20.7023 9.57072C20.7296 9.56533 20.7565 9.55765 20.8102 9.54229L23.9736 8.63848C24.4352 8.5066 24.666 8.44066 24.8486 8.49246C25.0086 8.53784 25.1458 8.64134 25.2334 8.78267C25.3333 8.94401 25.3333 9.18404 25.3333 9.6641V11.1436C25.3333 11.3173 25.3333 11.4042 25.3516 11.4806C25.369 11.5534 25.3917 11.6085 25.4306 11.6725C25.4715 11.7396 25.5406 11.8093 25.679 11.9487C26.3322 12.607 26.8717 13.3783 27.2657 14.2306C27.3884 14.4962 27.4498 14.629 27.525 14.7084C27.6061 14.794 27.6844 14.8441 27.7961 14.8817C27.8997 14.9167 28.0284 14.9167 28.2857 14.9167C28.6411 14.9167 28.8188 14.9167 28.956 14.9827C29.092 15.0482 29.2018 15.158 29.2673 15.294C29.3333 15.4312 29.3333 15.6089 29.3333 15.9643V20.5167C29.3333 20.89 29.3333 21.0767 29.2607 21.2193C29.1968 21.3448 29.0948 21.4468 28.9693 21.5107C28.8267 21.5833 28.64 21.5833 28.2667 21.5833H27.545C27.3229 21.5833 27.2119 21.5833 27.1183 21.6113C27.0289 21.6381 26.9637 21.6725 26.891 21.7311C26.815 21.7923 26.7438 21.8961 26.6015 22.1036C25.7921 23.2834 24.6745 24.2354 23.3649 24.8434C23.0873 24.9722 22.9485 25.0367 22.8666 25.117C22.7881 25.194 22.7418 25.2665 22.705 25.3702C22.6667 25.4783 22.6667 25.613 22.6667 25.8824V27.1833C22.6667 27.5567 22.6667 27.7434 22.594 27.886C22.5301 28.0114 22.4281 28.1134 22.3027 28.1773C22.1601 28.25 21.9734 28.25 21.6 28.25H19.0666C18.6932 28.25 18.5065 28.25 18.3639 28.1773C18.2385 28.1134 18.1365 28.0114 18.0726 27.886C17.9999 27.7434 17.9999 27.5567 17.9999 27.1833V26.65C17.9999 26.2766 17.9999 26.0899 17.9272 25.9473C17.8633 25.8219 17.7613 25.7199 17.6359 25.656C17.4933 25.5833 17.3066 25.5833 16.9332 25.5833H15.0666C14.6932 25.5833 14.5065 25.5833 14.3639 25.656C14.2385 25.7199 14.1365 25.8219 14.0726 25.9473C13.9999 26.0899 13.9999 26.2766 13.9999 26.65V27.1833C13.9999 27.5567 13.9999 27.7434 13.9272 27.886C13.8633 28.0114 13.7613 28.1134 13.6359 28.1773C13.4933 28.25 13.3066 28.25 12.9332 28.25H10.3999C10.0265 28.25 9.83985 28.25 9.69725 28.1773C9.5718 28.1134 9.46982 28.0114 9.4059 27.886C9.33324 27.7434 9.33324 27.5567 9.33324 27.1833V24.0231C9.33324 23.8493 9.33324 23.7624 9.315 23.6861C9.2976 23.6132 9.27491 23.5581 9.23595 23.4942C9.19511 23.4271 9.12593 23.3574 8.98756 23.2179C7.55287 21.772 6.66657 19.7812 6.66657 17.5833C6.66657 14.5112 8.39819 11.8436 10.9386 10.5032" stroke="#437D8E" stroke-width="2.5" stroke-linecap="round" stroke-linejoin="round"/>
<path d="M6.66657 17.5833H5.33333C3.86057 17.5833 2.66666 16.3894 2.66666 14.9167C2.66666 13.9296 3.20293 13.0678 4 12.6068" stroke="#437D8E" stroke-width="2.5" stroke-linecap="round" stroke-linejoin="round"/>
</svg>
